{"accessors" : [{"bufferView" : 0, "byteOffset" : 0, "componentType" : 5123, "count" : 1944, "type" : "SCALAR", "max" : [1576], "min" : [0]}, {"bufferView" : 1, "byteOffset" : 0, "componentType" : 5126, "count" : 1577, "type" : "VEC3", "max" : [0.9998905062675476, 1.0002939701080322, 0.9998905062675476], "min" : [-0.9998905062675476, -1, -0.9998905062675476], "name" : "POSITION"}, {"bufferView" : 1, "byteOffset" : 12, "componentType" : 5126, "count" : 1577, "type" : "VEC3", "max" : [1.0000044107437134, 1.0000044107437134, 1.0000044107437134], "min" : [-1.0000044107437134, -1.0000044107437134, -1.0000044107437134], "name" : "NORMAL"}, {"bufferView" : 1, "byteOffset" : 24, "componentType" : 5126, "count" : 1577, "type" : "VEC2", "max" : [1.0042259693145752, 1], "min" : [-0.0005609614308923483, -0.0028905868530273438], "name" : "TEXCOORD_0"}, {"bufferView" : 0, "byteOffset" : 3888, "componentType" : 5123, "count" : 1440, "type" : "SCALAR", "max" : [1147], "min" : [0]}, {"bufferView" : 2, "byteOffset" : 0, "componentType" : 5126, "count" : 1148, "type" : "VEC3", "max" : [0.9540889859199524, -0.09625138342380524, 1.158180832862854], "min" : [-0.9410820603370667, -2.23860764503479, 0.20445412397384644], "name" : "POSITION"}, {"bufferView" : 2, "byteOffset" : 12, "componentType" : 5126, "count" : 1148, "type" : "VEC3", "max" : [0.9068248867988586, 0.7072049975395203, 0.7125377655029297], "min" : [-0.9078108668327332, -0.7115914821624756, -0.7306146025657654], "name" : "NORMAL"}, {"bufferView" : 2, "byteOffset" : 24, "componentType" : 5126, "count" : 1148, "type" : "VEC2", "max" : [0, 1], "min" : [0, 1], "name" : "TEXCOORD_0"}, {"bufferView" : 0, "byteOffset" : 6768, "componentType" : 5123, "count" : 1440, "type" : "SCALAR", "max" : [1147], "min" : [0]}, {"bufferView" : 3, "byteOffset" : 0, "componentType" : 5126, "count" : 1148, "type" : "VEC3", "max" : [0.9405639171600342, -0.09625138342380524, -0.20281445980072021], "min" : [-0.954459547996521, -2.23860764503479, -1.156542420387268], "name" : "POSITION"}, {"bufferView" : 3, "byteOffset" : 12, "componentType" : 5126, "count" : 1148, "type" : "VEC3", "max" : [0.9078108668327332, 0.7072049975395203, 0.7306146025657654], "min" : [-0.9068248867988586, -0.7115914821624756, -0.7125377655029297], "name" : "NORMAL"}, {"bufferView" : 3, "byteOffset" : 24, "componentType" : 5126, "count" : 1148, "type" : "VEC2", "max" : [0, 1], "min" : [0, 1], "name" : "TEXCOORD_0"}], "asset" : {"generator" : "Aspose.3D 23.9.0", "version" : "2.0"}, "buffers" : [{"uri" : "data:application/octet-stream;base64,", "byteLength" : 164032}], "bufferViews" : [{"buffer" : 0, "byteOffset" : 0, "byteLength" : 9648, "target" : 34963}, {"buffer" : 0, "byteOffset" : 9652, "byteLength" : 62208, "byteStride" : 32, "target" : 34962}, {"buffer" : 0, "byteOffset" : 71864, "byteLength" : 46080, "byteStride" : 32, "target" : 34962}, {"buffer" : 0, "byteOffset" : 117948, "byteLength" : 46080, "byteStride" : 32, "target" : 34962}], "materials" : [{"name" : "Material.002", "pbrMetallicRoughness" : {"baseColorFactor" : [0.012286492623388767, 0.012286492623388767, 0.012286492623388767, 1], "metallicFactor" : 0, "roughnessFactor" : 0.5}, "emissiveFactor" : [0, 0, 0], "alphaMode" : "OPAQUE", "doubleSided" : true}, {"name" : "Material.001", "pbrMetallicRoughness" : {"baseColorFactor" : [1, 1, 1, 1], "metallicFactor" : 1, "roughnessFactor" : 1}, "emissiveFactor" : [0, 0, 0], "alphaMode" : "OPAQUE", "doubleSided" : true}, {"name" : "Material.004", "pbrMetallicRoughness" : {"baseColorFactor" : [1, 1, 1, 1], "metallicFactor" : 1, "roughnessFactor" : 1}, "emissiveFactor" : [0, 0, 0], "alphaMode" : "OPAQUE", "doubleSided" : true}], "meshes" : [{"primitives" : [{"attributes" : {"POSITION" : 1, "NORMAL" : 2, "TEXCOORD_0" : 3}, "indices" : 0, "material" : 0, "mode" : 4}, {"attributes" : {"POSITION" : 5, "NORMAL" : 6, "TEXCOORD_0" : 7}, "indices" : 4, "material" : 1, "mode" : 4}, {"attributes" : {"POSITION" : 9, "NORMAL" : 10, "TEXCOORD_0" : 11}, "indices" : 8, "material" : 2, "mode" : 4}]}], "nodes" : [{"matrix" : [2.4999988079071045, 0, 0, 0, 0, 0.3499999940395355, 0, 0, 0, 0, 0.4999997615814209, 0, 0, -0.06958800554275513, 0, 1], "mesh" : 0, "name" : "22V10 AMD GAL"}], "scene" : 0, "scenes" : [{"nodes" : [0]}]}